<svg width="316" height="170" viewBox="0 0 316 170" fill="none" xmlns="http://www.w3.org/2000/svg">
<path d="M55.2983 168.114C51.5184 168.114 48.4541 165.068 48.4541 161.311H108.21V7.78966H48.4541V0L256.782 0C274.85 0 289.218 4.54396 299.884 13.6319C310.551 22.5034 315.885 34.7289 315.885 50.3082C315.885 64.3728 310.66 76.0573 300.211 85.3616C289.762 94.6659 275.286 99.318 256.782 99.318H116.373V161.311H179.067V168.114H55.2983ZM259.068 7.78966H116.373V91.853H259.068C273.218 91.853 284.864 88.0663 294.007 80.493C303.15 72.9198 307.721 62.8582 307.721 50.3082C307.721 37.3254 303.259 27.0474 294.333 19.4741C285.626 11.6845 273.871 7.78966 259.068 7.78966Z" fill="white"/>
<path d="M259.777 0.661485C264.004 0.661485 267.43 4.06729 267.43 8.26857H207.675V160.986H267.43V168.776L58.563 169.34C40.4948 169.34 26.6669 164.232 16.0001 155.144C5.33337 146.272 0 134.047 0 118.468C0 104.403 5.22453 92.7185 15.6736 83.4142C26.1226 74.1099 40.5989 69.4577 59.1025 69.4577H199.512V8.26857H136.817V0.661485H259.777ZM56.8167 160.986H199.512V76.9228H56.8167C42.667 76.9228 31.0206 80.7094 21.8777 88.2827C12.7348 95.856 8.16334 105.918 8.16334 118.468C8.16334 131.45 12.626 141.728 21.5512 149.302C30.2587 157.091 42.0139 160.986 56.8167 160.986Z" fill="white"/>
</svg>
